<?xml version="1.0" standalone="no"?><!DOCTYPE svg PUBLIC "-//W3C//DTD SVG 1.1//EN" "http://www.w3.org/Graphics/SVG/1.1/DTD/svg11.dtd"><svg t="1592108649920" class="icon" viewBox="0 0 1024 1024" version="1.1" xmlns="http://www.w3.org/2000/svg" p-id="2716" data-darkreader-inline-fill="" xmlns:xlink="http://www.w3.org/1999/xlink" width="200" height="200"><defs><style type="text/css">* {  }
</style></defs><path d="M 512 12.7613 c -274.627 0 -499.322 224.695 -499.322 499.322 s 224.695 499.322 499.322 499.322 s 499.322 -224.695 499.322 -499.322 s -224.695 -499.322 -499.322 -499.322 Z m 0 943.164 c -244.113 0 -443.842 -199.729 -443.842 -443.842 s 199.729 -443.842 443.842 -443.842 s 443.842 199.729 443.842 443.842 s -199.729 443.842 -443.842 443.842 Z" p-id="2717"></path><path d="M 512 528.727 V 317.903 c 0 -13.87 -13.87 -27.7401 -27.7401 -27.7401 s -27.7401 13.87 -27.7401 27.7401 v 221.921 c 0 2.77401 0 5.54802 2.77401 11.0961 c 0 2.77401 2.77401 2.77401 2.77401 5.54802 c 0 0 0 2.77401 2.77401 2.77401 l 202.503 202.503 c 11.0961 11.0961 27.7401 11.0961 38.8361 -1e-008 s 11.0961 -27.7401 0 -38.8361 l -194.181 -194.181 Z" p-id="2718"></path></svg>